<svg class="ldi-e28dsq" width="200px"  height="200px"  xmlns="http://www.w3.org/2000/svg" xmlns:xlink="http://www.w3.org/1999/xlink" viewBox="0 0 100 100" preserveAspectRatio="xMidYMid" style="background: none;"><!--?xml version="1.0" encoding="utf-8"?--><!--Generator: Adobe Illustrator 21.0.0, SVG Export Plug-In . SVG Version: 6.00 Build 0)--><svg version="1.1" id="Layer_1" xmlns="http://www.w3.org/2000/svg" xmlns:xlink="http://www.w3.org/1999/xlink" x="0px" y="0px" viewBox="0 0 100 100" style="transform-origin: 50px 50px 0px;" xml:space="preserve"><g style="transform-origin: 50px 50px 0px;"><g style="transform-origin: 50px 50px 0px; transform: scale(0.6);"><g style="transform-origin: 50px 50px 0px;"><g><style type="text/css" class="ld ld-heartbeat" style="transform-origin: 50px 50px 0px; animation-duration: 2.3s; animation-delay: -2.3s; animation-direction: normal;">.st0{fill:#F4E6C8;} .st1{opacity:0.8;fill:#849B87;} .st2{fill:#D65A62;} .st3{fill:#E15C64;} .st4{fill:#F47E5F;} .st5{fill:#F7B26A;} .st6{fill:#FEE8A2;} .st7{fill:#ACBD81;} .st8{fill:#F5E169;} .st9{fill:#F0AF6B;} .st10{fill:#EA7C60;} .st11{fill:#A8B980;} .st12{fill:#829985;} .st13{fill:#798AAE;} .st14{fill:#8672A7;} .st15{fill:#CC5960;} .st16{fill:#E17A5F;} .st17{fill:#849B87;} .st18{opacity:0.8;fill:#E15C64;} .st19{opacity:0.8;fill:#F7B26A;} .st20{fill:#79A5B5;} .st21{opacity:0.8;fill:#79A5B4;} .st22{fill:#666766;}</style><g class="ld ld-heartbeat" style="transform-origin: 50px 50px 0px; animation-duration: 2.3s; animation-delay: -2.21154s; animation-direction: normal;"><path class="st3" d="M18,26L18,26c-4.4,0-8-3.6-8-8v0c0-4.4,3.6-8,8-8h0c4.4,0,8,3.6,8,8v0C26,22.4,22.4,26,18,26z" fill="#3ca928" style="fill: rgb(60, 169, 40);"></path></g><g class="ld ld-heartbeat" style="transform-origin: 50px 50px 0px; animation-duration: 2.3s; animation-delay: -2.12308s; animation-direction: normal;"><path class="st5" d="M18,47.3L18,47.3c-4.4,0-8-3.6-8-8v0c0-4.4,3.6-8,8-8h0c4.4,0,8,3.6,8,8v0C26,43.8,22.4,47.3,18,47.3z" fill="#004047" style="fill: rgb(0, 64, 71);"></path></g><g class="ld ld-heartbeat" style="transform-origin: 50px 50px 0px; animation-duration: 2.3s; animation-delay: -2.03462s; animation-direction: normal;"><path class="st4" d="M18,68.7L18,68.7c-4.4,0-8-3.6-8-8v0c0-4.4,3.6-8,8-8h0c4.4,0,8,3.6,8,8v0C26,65.1,22.4,68.7,18,68.7z" fill="#3ca928" style="fill: rgb(60, 169, 40);"></path></g><g class="ld ld-heartbeat" style="transform-origin: 50px 50px 0px; animation-duration: 2.3s; animation-delay: -1.94615s; animation-direction: normal;"><path class="st7" d="M18,90L18,90c-4.4,0-8-3.6-8-8v0c0-4.4,3.6-8,8-8h0c4.4,0,8,3.6,8,8v0C26,86.4,22.4,90,18,90z" fill="#004047" style="fill: rgb(0, 64, 71);"></path></g><g class="ld ld-heartbeat" style="transform-origin: 50px 50px 0px; animation-duration: 2.3s; animation-delay: -1.85769s; animation-direction: normal;"><path class="st4" d="M39.3,26L39.3,26c-4.4,0-8-3.6-8-8v0c0-4.4,3.6-8,8-8h0c4.4,0,8,3.6,8,8v0C47.3,22.4,43.8,26,39.3,26z" fill="#3ca928" style="fill: rgb(60, 169, 40);"></path></g><g class="ld ld-heartbeat" style="transform-origin: 50px 50px 0px; animation-duration: 2.3s; animation-delay: -1.76923s; animation-direction: normal;"><path class="st7" d="M39.3,47.3L39.3,47.3c-4.4,0-8-3.6-8-8v0c0-4.4,3.6-8,8-8h0c4.4,0,8,3.6,8,8v0C47.3,43.8,43.8,47.3,39.3,47.3z" fill="#004047" style="fill: rgb(0, 64, 71);"></path></g><g class="ld ld-heartbeat" style="transform-origin: 50px 50px 0px; animation-duration: 2.3s; animation-delay: -1.68077s; animation-direction: normal;"><path class="st5" d="M39.3,68.7L39.3,68.7c-4.4,0-8-3.6-8-8v0c0-4.4,3.6-8,8-8h0c4.4,0,8,3.6,8,8v0C47.3,65.1,43.8,68.7,39.3,68.7z" fill="#004047" style="fill: rgb(0, 64, 71);"></path></g><g class="ld ld-heartbeat" style="transform-origin: 50px 50px 0px; animation-duration: 2.3s; animation-delay: -1.59231s; animation-direction: normal;"><path class="st3" d="M39.3,90L39.3,90c-4.4,0-8-3.6-8-8v0c0-4.4,3.6-8,8-8h0c4.4,0,8,3.6,8,8v0C47.3,86.4,43.8,90,39.3,90z" fill="#3ca928" style="fill: rgb(60, 169, 40);"></path></g><g class="ld ld-heartbeat" style="transform-origin: 50px 50px 0px; animation-duration: 2.3s; animation-delay: -1.50385s; animation-direction: normal;"><path class="st5" d="M60.7,26L60.7,26c-4.4,0-8-3.6-8-8v0c0-4.4,3.6-8,8-8h0c4.4,0,8,3.6,8,8v0C68.7,22.4,65.1,26,60.7,26z" fill="#004047" style="fill: rgb(0, 64, 71);"></path></g><g class="ld ld-heartbeat" style="transform-origin: 50px 50px 0px; animation-duration: 2.3s; animation-delay: -1.41538s; animation-direction: normal;"><path class="st3" d="M60.7,47.3L60.7,47.3c-4.4,0-8-3.6-8-8v0c0-4.4,3.6-8,8-8h0c4.4,0,8,3.6,8,8v0C68.7,43.8,65.1,47.3,60.7,47.3z" fill="#3ca928" style="fill: rgb(60, 169, 40);"></path></g><g class="ld ld-heartbeat" style="transform-origin: 50px 50px 0px; animation-duration: 2.3s; animation-delay: -1.32692s; animation-direction: normal;"><path class="st7" d="M60.7,68.7L60.7,68.7c-4.4,0-8-3.6-8-8v0c0-4.4,3.6-8,8-8h0c4.4,0,8,3.6,8,8v0C68.7,65.1,65.1,68.7,60.7,68.7z" fill="#004047" style="fill: rgb(0, 64, 71);"></path></g><g class="ld ld-heartbeat" style="transform-origin: 50px 50px 0px; animation-duration: 2.3s; animation-delay: -1.23846s; animation-direction: normal;"><path class="st4" d="M60.7,90L60.7,90c-4.4,0-8-3.6-8-8v0c0-4.4,3.6-8,8-8h0c4.4,0,8,3.6,8,8v0C68.7,86.4,65.1,90,60.7,90z" fill="#3ca928" style="fill: rgb(60, 169, 40);"></path></g><g class="ld ld-heartbeat" style="transform-origin: 50px 50px 0px; animation-duration: 2.3s; animation-delay: -1.15s; animation-direction: normal;"><path class="st7" d="M82,26L82,26c-4.4,0-8-3.6-8-8v0c0-4.4,3.6-8,8-8h0c4.4,0,8,3.6,8,8v0C90,22.4,86.4,26,82,26z" fill="#004047" style="fill: rgb(0, 64, 71);"></path></g><g class="ld ld-heartbeat" style="transform-origin: 50px 50px 0px; animation-duration: 2.3s; animation-delay: -1.06154s; animation-direction: normal;"><path class="st4" d="M82,47.3L82,47.3c-4.4,0-8-3.6-8-8v0c0-4.4,3.6-8,8-8h0c4.4,0,8,3.6,8,8v0C90,43.8,86.4,47.3,82,47.3z" fill="#3ca928" style="fill: rgb(60, 169, 40);"></path></g><g class="ld ld-heartbeat" style="transform-origin: 50px 50px 0px; animation-duration: 2.3s; animation-delay: -0.973077s; animation-direction: normal;"><path class="st3" d="M82,68.7L82,68.7c-4.4,0-8-3.6-8-8v0c0-4.4,3.6-8,8-8h0c4.4,0,8,3.6,8,8v0C90,65.1,86.4,68.7,82,68.7z" fill="#3ca928" style="fill: rgb(60, 169, 40);"></path></g><g class="ld ld-heartbeat" style="transform-origin: 50px 50px 0px; animation-duration: 2.3s; animation-delay: -0.884615s; animation-direction: normal;"><path class="st5" d="M82,90L82,90c-4.4,0-8-3.6-8-8v0c0-4.4,3.6-8,8-8h0c4.4,0,8,3.6,8,8v0C90,86.4,86.4,90,82,90z" fill="#004047" style="fill: rgb(0, 64, 71);"></path></g><metadata xmlns:d="https://loading.io/stock/" class="ld ld-heartbeat" style="transform-origin: 50px 50px 0px; animation-duration: 2.3s; animation-delay: -0.796154s; animation-direction: normal;">
<d:name class="ld ld-heartbeat" style="transform-origin: 50px 50px 0px; animation-duration: 2.3s; animation-delay: -0.707692s; animation-direction: normal;">cell</d:name>
<d:tags class="ld ld-heartbeat" style="transform-origin: 50px 50px 0px; animation-duration: 2.3s; animation-delay: -0.619231s; animation-direction: normal;">grid,circle,ball,bingo,frame,cell,spinner</d:tags>
<d:license class="ld ld-heartbeat" style="transform-origin: 50px 50px 0px; animation-duration: 2.3s; animation-delay: -0.530769s; animation-direction: normal;">cc0</d:license>
<d:slug class="ld ld-heartbeat" style="transform-origin: 50px 50px 0px; animation-duration: 2.3s; animation-delay: -0.442308s; animation-direction: normal;">e28dsq</d:slug>
</metadata></g></g></g></g><style type="text/css" class="ld ld-heartbeat" style="transform-origin: 50px 50px 0px; animation-duration: 2.3s; animation-delay: -0.353846s; animation-direction: normal;">path,ellipse,circle,rect,polygon,polyline,line { stroke-width: 0; }@keyframes ld-heartbeat {
  0% {
    -webkit-transform: scale(1.05);
    transform: scale(1.05);
  }
  5% {
    -webkit-transform: scale(1.25);
    transform: scale(1.25);
  }
  39% {
    -webkit-transform: scale(0.9);
    transform: scale(0.9);
  }
  45% {
    -webkit-transform: scale(1.15);
    transform: scale(1.15);
  }
  60% {
    -webkit-transform: scale(1.05);
    transform: scale(1.05);
  }
  100% {
    -webkit-transform: scale(1);
    transform: scale(1);
  }
}
@-webkit-keyframes ld-heartbeat {
  0% {
    -webkit-transform: scale(1.05);
    transform: scale(1.05);
  }
  5% {
    -webkit-transform: scale(1.25);
    transform: scale(1.25);
  }
  39% {
    -webkit-transform: scale(0.9);
    transform: scale(0.9);
  }
  45% {
    -webkit-transform: scale(1.15);
    transform: scale(1.15);
  }
  60% {
    -webkit-transform: scale(1.05);
    transform: scale(1.05);
  }
  100% {
    -webkit-transform: scale(1);
    transform: scale(1);
  }
}
.ld.ld-heartbeat {
  -webkit-animation: ld-heartbeat 0.8s infinite cubic-bezier(0.215, 0.61, 0.355, 1);
  animation: ld-heartbeat 0.8s infinite cubic-bezier(0.215, 0.61, 0.355, 1);
}
</style></svg></svg>