<?xml version="1.0" encoding="utf-8"?>
<!-- Generator: Adobe Illustrator 21.1.0, SVG Export Plug-In . SVG Version: 6.00 Build 0)  -->
<svg version="1.0" id="Capa_1" xmlns="http://www.w3.org/2000/svg" xmlns:xlink="http://www.w3.org/1999/xlink" x="0px" y="0px"
	 viewBox="0 0 37.3 61.9" style="enable-background:new 0 0 37.3 61.9;" xml:space="preserve">
<style type="text/css">
	.st0{fill:#3CAA61;}
</style>
<g>
	<path class="st0" d="M32.9,30c-0.6,0-1,0.4-1,1v6c0,7.7-6.3,14-14,14s-14-6.3-14-14v-6c0-0.6-0.4-1-1-1s-1,0.4-1,1v6
		c0,8.5,6.6,15.4,15,15.9V58h-5c-0.6,0-1,0.4-1,1s0.4,1,1,1h12c0.6,0,1-0.4,1-1s-0.4-1-1-1h-5V53c8.4-0.5,15-7.5,15-15.9v-6
		C33.9,30.5,33.4,30,32.9,30z"/>
	<path class="st0" d="M17.9,48c6.1,0,11-4.9,11-11V13c0-6.1-4.9-11-11-11S6.9,7,6.9,13v24C6.9,43.1,11.8,48,17.9,48z"/>
</g>
</svg>
