<?xml version="1.0" encoding="utf-8"?>
<!-- Generator: Adobe Illustrator 21.1.0, SVG Export Plug-In . SVG Version: 6.00 Build 0)  -->
<svg version="1.0" id="Isolation_Mode" xmlns="http://www.w3.org/2000/svg" xmlns:xlink="http://www.w3.org/1999/xlink" x="0px"
	 y="0px" viewBox="0 0 270 43" style="enable-background:new 0 0 270 43;" xml:space="preserve">
<style type="text/css">
	.st0{fill:#FFFFFF;}
</style>
<g>
	<path class="st0" d="M28.5,8.2c1.6,0.7,3,1.7,4.2,3l-3.2,3.5c-0.8-1-1.8-1.8-2.9-2.4c-1.1-0.6-2.3-0.9-3.5-0.9
		c-1.7,0-3.2,0.4-4.7,1.2s-2.6,2-3.4,3.4c-0.9,1.4-1.3,3-1.3,4.6c0,1.4,0.3,2.8,1,3.9c0.7,1.2,1.6,2.1,2.7,2.8c1.2,0.7,2.5,1,3.9,1
		c1.2,0,2.4-0.3,3.7-0.8c1.3-0.5,2.4-1.3,3.4-2.2l2.6,3.2c-1.5,1.3-3.1,2.4-5,3.2c-1.8,0.8-3.6,1.2-5.4,1.2c-2.3,0-4.3-0.5-6.1-1.6
		c-1.8-1-3.2-2.5-4.2-4.3c-1-1.8-1.5-3.8-1.5-6c0-2.6,0.7-4.9,2-7.1c1.3-2.1,3.1-3.8,5.4-5.1c2.2-1.2,4.7-1.9,7.3-1.9
		C25.1,7.1,26.8,7.4,28.5,8.2z"/>
	<path class="st0" d="M54.5,13.3l-13,21.9c-1.8,3.1-4.2,4.6-7.2,4.6c-1,0-1.8-0.2-2.5-0.5c-0.7-0.3-1.4-0.8-2.1-1.4l2.4-3.3
		c0.7,0.6,1.4,0.8,2.2,0.8c1.3,0,2.4-0.7,3.5-2l0.9-1.2l-4.1-18.9h4.8l2.6,14.2l7.9-14.2H54.5z"/>
	<path class="st0" d="M72.2,14.3c1.2,0.7,2.1,1.7,2.8,3c0.7,1.3,1,2.8,1,4.5c0,2.1-0.5,3.9-1.4,5.6c-0.9,1.7-2.2,3-3.7,4
		s-3.3,1.5-5.3,1.5c-1.6,0-3-0.3-4.1-1s-1.9-1.7-2.4-3l-0.8,3.7h-4.7l5.3-26.7h4.6l-2,10.2c0.9-0.9,1.9-1.6,3-2.1
		c1.1-0.5,2.3-0.7,3.6-0.7C69.6,13.2,71,13.6,72.2,14.3z M63.3,17.9c-1,0.6-1.7,1.4-2.3,2.4c-0.6,1-0.8,2.1-0.8,3.3
		c0,1.5,0.4,2.7,1.3,3.7c0.9,0.9,2,1.4,3.5,1.4c1.1,0,2.2-0.3,3.2-0.9c1-0.6,1.7-1.4,2.3-2.4c0.6-1,0.8-2.1,0.8-3.3
		c0-1.5-0.4-2.7-1.3-3.6c-0.9-0.9-2-1.4-3.5-1.4C65.3,17,64.2,17.3,63.3,17.9z"/>
	<path class="st0" d="M95.6,15.4c1.5,1.5,2.3,3.5,2.3,6.1c0,1-0.1,2-0.4,3.1H83c0.1,1.4,0.6,2.5,1.5,3.3s2.1,1.2,3.7,1.2
		c1.8,0,3.5-0.6,5-1.7l2.2,2.8c-2,1.8-4.5,2.6-7.4,2.6c-1.9,0-3.6-0.4-5.1-1.1c-1.5-0.7-2.6-1.7-3.4-3.1c-0.8-1.3-1.2-2.9-1.2-4.6
		c0-2,0.5-3.9,1.4-5.5c0.9-1.6,2.3-2.9,3.9-3.9c1.7-0.9,3.5-1.4,5.6-1.4C92,13.2,94.1,13.9,95.6,15.4z M92.6,18.1
		c-0.7-0.8-1.8-1.2-3.2-1.2c-1.4,0-2.6,0.4-3.7,1.3c-1.1,0.8-1.9,1.9-2.3,3.3h10.3C93.7,20,93.4,18.9,92.6,18.1z"/>
	<path class="st0" d="M111,14.1c1.2-0.6,2.5-0.9,4-1l-0.6,4.5l-0.6,0c-1.8,0-3.3,0.5-4.6,1.5c-1.3,1-2.2,2.3-2.6,3.9l-1.9,9.5H100
		l3.8-19.3h4.7l-0.7,3.5C108.8,15.6,109.8,14.7,111,14.1z"/>
</g>
<g>
	<path class="st0" d="M139,8.2c1.6,0.7,3,1.7,4.2,3l-3.2,3.5c-0.8-1-1.8-1.8-2.9-2.4c-1.1-0.6-2.3-0.9-3.5-0.9
		c-1.7,0-3.2,0.4-4.7,1.2s-2.6,2-3.4,3.4c-0.9,1.4-1.3,3-1.3,4.6c0,1.4,0.3,2.8,1,3.9c0.7,1.2,1.6,2.1,2.7,2.8c1.2,0.7,2.5,1,3.9,1
		c1.2,0,2.4-0.3,3.7-0.8c1.3-0.5,2.4-1.3,3.4-2.2l2.6,3.2c-1.5,1.3-3.1,2.4-5,3.2c-1.8,0.8-3.6,1.2-5.4,1.2c-2.3,0-4.3-0.5-6.1-1.6
		c-1.8-1-3.2-2.5-4.2-4.3c-1-1.8-1.5-3.8-1.5-6c0-2.6,0.7-4.9,2-7.1c1.3-2.1,3.1-3.8,5.4-5.1c2.2-1.2,4.7-1.9,7.3-1.9
		C135.6,7.1,137.4,7.4,139,8.2z"/>
	<path class="st0" d="M160.1,14.3c1.4,0.7,2.5,1.8,3.2,3.1c0.8,1.3,1.1,2.9,1.1,4.6c0,2.1-0.5,3.9-1.5,5.6c-1,1.6-2.3,2.9-4,3.8
		c-1.7,0.9-3.6,1.4-5.7,1.4c-1.8,0-3.5-0.4-4.9-1.1c-1.4-0.7-2.5-1.8-3.2-3.1c-0.8-1.3-1.1-2.9-1.1-4.6c0-2.1,0.5-3.9,1.4-5.6
		c1-1.6,2.3-2.9,4-3.8c1.7-0.9,3.6-1.4,5.8-1.4C157.1,13.2,158.7,13.6,160.1,14.3z M151.8,18c-0.9,0.6-1.7,1.3-2.2,2.3
		c-0.5,1-0.8,2.1-0.8,3.3c0,1.6,0.4,2.8,1.3,3.8c0.9,0.9,2.1,1.4,3.5,1.4c1.2,0,2.2-0.3,3.1-0.8c0.9-0.6,1.6-1.3,2.2-2.3
		c0.5-1,0.8-2.1,0.8-3.3c0-1.5-0.4-2.8-1.3-3.7c-0.9-1-2-1.4-3.5-1.4C153.7,17.2,152.7,17.5,151.8,18z"/>
	<path class="st0" d="M186.1,14.8c1.2,1.1,1.9,2.6,1.9,4.5c0,0.6-0.1,1.3-0.2,2l-2.3,11.3h-4.7l2.1-10.7c0.1-0.4,0.1-0.8,0.1-1.2
		c0-1.1-0.3-1.9-1-2.6c-0.7-0.6-1.6-0.9-2.8-0.9c-1.4,0-2.6,0.5-3.6,1.4c-1,0.9-1.7,2.2-2,3.7l-2.1,10.2h-4.7l3.8-19.3h4.8l-0.5,2.7
		c1.5-2,3.6-3,6.3-3C183.2,13.1,184.9,13.6,186.1,14.8z"/>
	<path class="st0" d="M197.4,26.4c-0.1,0.4-0.1,0.7-0.1,1c0,0.5,0.1,0.8,0.3,1c0.2,0.2,0.6,0.3,1.1,0.3c0.7,0,1.8-0.3,3-0.9l0.6,3.7
		c-1.6,0.9-3.2,1.3-4.9,1.3c-1.5,0-2.6-0.4-3.5-1.2c-0.9-0.8-1.3-1.9-1.3-3.3c0-0.5,0-1,0.1-1.5l1.9-9.3h-2.7l0.6-3.4h2.7l1-5.3h4.7
		l-1.1,5.3h5.5l-0.6,3.4h-5.6L197.4,26.4z"/>
	<path class="st0" d="M209.5,31.7c-1.2-0.7-2.1-1.7-2.8-3s-1-2.8-1-4.5c0-2.1,0.5-3.9,1.4-5.6c0.9-1.7,2.2-3,3.7-4s3.3-1.5,5.3-1.5
		c1.6,0,3,0.3,4.1,1c1.1,0.7,1.9,1.7,2.4,3l0.8-3.8h4.7l-3.9,19.3h-4.6l0.5-2.6c-0.9,0.9-1.9,1.6-3,2.1c-1.1,0.5-2.3,0.7-3.6,0.7
		C212,32.8,210.7,32.5,209.5,31.7z M218.4,28.1c1-0.6,1.7-1.4,2.3-2.4c0.6-1,0.8-2.1,0.8-3.3c0-1.5-0.4-2.7-1.3-3.7
		c-0.9-0.9-2-1.4-3.5-1.4c-1.2,0-2.2,0.3-3.2,0.9c-1,0.6-1.7,1.4-2.3,2.4c-0.6,1-0.8,2.1-0.8,3.3c0,1.5,0.4,2.7,1.3,3.6
		s2,1.4,3.5,1.4C216.4,29,217.5,28.7,218.4,28.1z"/>
	<path class="st0" d="M234.5,31.7c-1.3-0.7-2.4-1.8-3.1-3.1c-0.7-1.3-1.1-2.9-1.1-4.6c0-2.1,0.5-4,1.4-5.6c0.9-1.6,2.2-2.9,3.9-3.8
		c1.6-0.9,3.5-1.4,5.5-1.4c1.8,0,3.3,0.3,4.6,0.9c1.3,0.6,2.4,1.5,3.2,2.6l-3.1,2.7c-1.2-1.4-2.8-2.1-4.8-2.1c-1.1,0-2.1,0.3-3,0.8
		c-0.9,0.5-1.6,1.3-2.1,2.3c-0.5,1-0.8,2.1-0.8,3.3c0,1.5,0.4,2.7,1.3,3.7s2,1.4,3.4,1.4c2.3,0,4.1-0.8,5.4-2.3l2.7,2.4
		c-1,1.2-2.2,2.2-3.7,2.9c-1.5,0.7-3.2,1-5,1C237.4,32.8,235.8,32.4,234.5,31.7z"/>
	<path class="st0" d="M257.7,26.4c-0.1,0.4-0.1,0.7-0.1,1c0,0.5,0.1,0.8,0.3,1c0.2,0.2,0.6,0.3,1.1,0.3c0.7,0,1.8-0.3,3-0.9l0.6,3.7
		c-1.6,0.9-3.2,1.3-4.9,1.3c-1.5,0-2.6-0.4-3.5-1.2c-0.9-0.8-1.3-1.9-1.3-3.3c0-0.5,0-1,0.1-1.5l1.9-9.3h-2.7l0.6-3.4h2.7l1-5.3h4.7
		l-1.1,5.3h5.5l-0.6,3.4h-5.6L257.7,26.4z"/>
</g>
</svg>
