<?xml version="1.0" encoding="utf-8"?>
<!-- Generator: Adobe Illustrator 21.1.0, SVG Export Plug-In . SVG Version: 6.00 Build 0)  -->
<svg version="1.0" id="Layer_1" xmlns="http://www.w3.org/2000/svg" xmlns:xlink="http://www.w3.org/1999/xlink" x="0px" y="0px"
	 viewBox="0 0 26 34" style="enable-background:new 0 0 26 34;" xml:space="preserve">
<style type="text/css">
	.st0{fill:#FFFFFF;}
	.st1{fill:#1D2830;}
	.st2{fill:#3DAA62;}
</style>
<g>
	<path class="st0" d="M23.9,4.4c-0.5,0.6-1.3,1.1-2.3,1.1c-1.5,0-2.5-1.1-2.3-2.6c0-0.4,0.2-0.7,0.4-1.1l-0.2,0.2l-7.4,13.8
		l-1.7-7.7c0,0.1,0,0.1,0,0.2C10.4,9.8,9.1,11,7.7,11c-0.8,0-1.5-0.4-1.9-0.9l3.5,7.4l-5.9-1.1H3.1c1.5,0,2.4,1.2,2.3,2.6
		c-0.2,1.3-1.2,2.4-2.6,2.6h0.1l6.2-0.9l-5.1,5c0.5-0.3,1-0.6,1.7-0.6c1.5,0,2.5,1.1,2.3,2.6c0,0.3-0.1,0.6-0.3,0.9l3.7-6.5
		l2.5,10.5c-0.1-0.3-0.2-0.7-0.1-1.1c0.2-1.5,1.5-2.6,2.9-2.6c0.7,0,1.3,0.3,1.8,0.7l-4.4-8.7l7.8,0.7C20.7,21,20,20,20.1,18.8
		c0.1-1.2,1-2.3,2.3-2.5l-7.7,1.1l9.2-12.9V4.4z"/>
	<path class="st1" d="M14.1,33.1L14.1,33.1L14.1,33.1z"/>
	<path class="st2" d="M5.4,19c-0.2,1.5-1.5,2.6-2.9,2.6S0,20.4,0.2,19s1.5-2.6,2.9-2.6C4.5,16.4,5.5,17.5,5.4,19z"/>
	<path class="st2" d="M25.4,19c-0.2,1.5-1.5,2.6-2.9,2.6c-1.5,0-2.5-1.1-2.3-2.6c0.2-1.5,1.5-2.6,2.9-2.6
		C24.5,16.4,25.5,17.5,25.4,19z"/>
	<path class="st2" d="M10.6,8.4C10.4,9.8,9.1,11,7.7,11S5.2,9.8,5.4,8.4s1.5-2.6,2.9-2.6C9.7,5.8,10.8,6.9,10.6,8.4z"/>
	<path class="st2" d="M24.7,2.9c-0.2,1.5-1.5,2.6-2.9,2.6c-1.5,0-2.5-1.1-2.3-2.6c0.2-1.5,1.5-2.6,2.9-2.6
		C23.8,0.3,24.9,1.4,24.7,2.9z"/>
	<path class="st2" d="M8,27.7c-0.2,1.5-1.5,2.6-2.9,2.6s-2.5-1.1-2.3-2.6s1.5-2.6,2.9-2.6C7,25,8.1,26.2,8,27.7z"/>
	<path class="st2" d="M19,31.4c-0.2,1.5-1.5,2.6-2.9,2.6c-1.5,0-2.5-1.1-2.3-2.6c0.2-1.5,1.5-2.6,2.9-2.6C18,28.8,19.1,30,19,31.4z"
		/>
</g>
</svg>
