<?xml version="1.0" encoding="utf-8"?>
<!-- Generator: Adobe Illustrator 21.1.0, SVG Export Plug-In . SVG Version: 6.00 Build 0)  -->
<svg version="1.0" id="Layer_1" xmlns="http://www.w3.org/2000/svg" xmlns:xlink="http://www.w3.org/1999/xlink" x="0px" y="0px"
	 viewBox="0 0 227 59.3" style="enable-background:new 0 0 227 59.3;" xml:space="preserve">
<style type="text/css">
	.st0{fill:#FFFFFF;}
	.st1{fill:#1D2830;}
	.st2{fill:#3DAA62;}
</style>
<g>
	<path class="st0" d="M225,7.4c-0.8,0.9-2.1,1.7-3.4,1.7c-2.2,0-3.8-1.8-3.5-4c0.1-0.6,0.3-1.2,0.5-1.7l-0.3,0.4l-11.2,20.8
		l-2.4-11.6c0,0.1,0,0.2,0,0.3c-0.3,2.2-2.2,4-4.4,4c-1.3,0-2.2-0.5-2.8-1.5l5.4,11.2l-9-1.7h-0.4c2.1,0,3.7,1.8,3.4,4
		c-0.2,2-1.9,3.7-3.9,3.9h0.1l9.4-1.5l-7.8,7.6c0.7-0.5,1.7-0.8,2.5-0.8c2.2,0,3.8,1.8,3.5,4c-0.1,0.5-0.2,0.9-0.4,1.4l5.6-9.9
		l3.7,15.9c-0.2-0.5-0.2-1.1-0.2-1.7c0.2-2.2,2.2-4,4.4-4c1.1,0,2,0.4,2.6,1.2l-6.5-13.2l11.8,1.1c-1.7-0.4-2.8-2-2.6-3.9
		c0.2-1.8,1.7-3.4,3.4-3.8l-11.5,1.7l13.9-19.6L225,7.4z"/>
	<path class="st1" d="M209.9,50.6L209.9,50.6L209.9,50.6z"/>
	<path class="st2" d="M196.7,29.3c-0.2,2.2-2.2,4-4.4,4c-2.2,0-3.8-1.8-3.5-4c0.3-2.2,2.2-4,4.4-4C195.5,25.3,197.1,27.1,196.7,29.3
		z"/>
	<path class="st2" d="M227,29.3c-0.2,2.2-2.2,4-4.4,4c-2.2,0-3.8-1.8-3.5-4c0.3-2.2,2.2-4,4.4-4C225.7,25.3,227.3,27.1,227,29.3z"/>
	<path class="st2" d="M204.6,13.3c-0.3,2.2-2.2,4-4.4,4s-3.8-1.8-3.5-4c0.2-2.2,2.2-4,4.4-4C203.4,9.3,205,11.1,204.6,13.3z"/>
	<path class="st2" d="M225.9,5.1c-0.2,2.2-2.2,4-4.4,4c-2.2,0-3.8-1.8-3.5-4c0.2-2.2,2.2-4,4.4-4S226.2,2.9,225.9,5.1z"/>
	<path class="st2" d="M200.6,42.4c-0.3,2.2-2.2,4-4.4,4s-3.8-1.8-3.5-4c0.2-2.2,2.2-4,4.4-4C199.4,38.5,201,40.3,200.6,42.4z"/>
	<path class="st2" d="M217.3,48.2c-0.2,2.2-2.2,4-4.4,4s-3.7-1.8-3.5-4c0.2-2.2,2.2-4,4.4-4C216,44.2,217.6,46,217.3,48.2z"/>
</g>
<g>
	<path class="st0" d="M101.3,51.4c-1.6-0.6-2.8-1.5-3.8-2.5l2-3.1c0.8,0.8,1.8,1.6,3.1,2.1c1.3,0.5,2.4,0.8,3.5,0.8
		c0.8,0,1.6-0.2,2.1-0.5c0.5-0.3,0.7-0.8,0.7-1.5c0-0.5-0.2-0.9-0.7-1.4c-0.5-0.4-1.4-0.7-2.4-1.2c-1.1-0.4-2-0.8-2.6-1.3
		c-0.7-0.4-1.3-0.9-1.8-1.6s-0.7-1.6-0.7-2.5c0-1.2,0.3-2.2,0.8-3.1c0.6-0.8,1.4-1.6,2.4-2c1.1-0.5,2.3-0.7,3.7-0.7
		c1.4,0,2.8,0.2,4.2,0.7c1.5,0.5,2.6,1.2,3.6,2l-2.2,3.1c-0.9-0.6-1.9-1.3-2.9-1.7c-1.1-0.4-2-0.6-2.7-0.6c-0.7,0-1.4,0.2-1.8,0.5
		c-0.5,0.3-0.7,0.7-0.7,1.3c0,0.5,0.2,0.9,0.7,1.3c0.5,0.3,1.3,0.7,2.4,1.2c1.2,0.4,2,0.9,2.7,1.3c0.7,0.4,1.4,0.9,1.8,1.6
		c0.5,0.7,0.7,1.6,0.7,2.6c0,1.2-0.3,2.2-0.9,3.1c-0.6,0.9-1.5,1.6-2.5,2.1c-1.2,0.5-2.3,0.7-3.8,0.7
		C104.6,52.4,102.9,52,101.3,51.4z"/>
	<path class="st0" d="M119.6,51.2c-1.2-0.7-2.1-1.7-2.7-2.9c-0.6-1.3-0.9-2.7-0.9-4.4c0-2,0.4-3.9,1.4-5.5c0.8-1.7,2.1-2.9,3.7-3.9
		c1.6-0.9,3.3-1.5,5.2-1.5c1.6,0,2.9,0.3,4,1.1c1.1,0.6,1.9,1.7,2.4,2.9l0.7-3.8h4.6l-3.8,18.8h-4.5l0.5-2.5
		c-0.8,0.8-1.8,1.6-2.9,2.1c-1.2,0.5-2.3,0.7-3.6,0.7C122.1,52.4,120.7,52,119.6,51.2z M128.3,47.7c0.9-0.6,1.7-1.4,2.2-2.4
		c0.5-1.1,0.8-2.1,0.8-3.3c0-1.5-0.4-2.6-1.3-3.6c-0.8-0.9-2-1.4-3.4-1.4c-1.2,0-2.2,0.3-3.2,0.8c-0.9,0.6-1.7,1.4-2.2,2.4
		s-0.8,2.1-0.8,3.3c0,1.5,0.4,2.6,1.3,3.6c0.8,0.8,2,1.4,3.4,1.4C126.4,48.6,127.3,48.3,128.3,47.7z"/>
	<path class="st0" d="M149,26l-5.3,26.2h-4.6l5.3-26.2C144.4,26,149,26,149,26z"/>
	<path class="st0" d="M166.2,35.3c1.5,1.5,2.3,3.5,2.3,6c0,0.9-0.1,2-0.3,3.1h-14.3c0.1,1.4,0.6,2.4,1.5,3.3s2.1,1.2,3.6,1.2
		c1.8,0,3.5-0.5,4.9-1.7l2.1,2.7c-2,1.7-4.4,2.5-7.3,2.5c-1.9,0-3.6-0.3-5.1-1.1c-1.5-0.7-2.5-1.7-3.4-3.1c-0.8-1.4-1.2-2.8-1.2-4.5
		c0-2,0.4-3.8,1.4-5.4c0.9-1.6,2.2-2.8,3.9-3.8c1.7-0.9,3.5-1.4,5.5-1.4C162.6,33.1,164.6,33.9,166.2,35.3z M163.3,38
		c-0.7-0.7-1.8-1.2-3.2-1.2c-1.4,0-2.6,0.4-3.7,1.3s-1.8,1.9-2.3,3.3h10.1C164.3,39.9,164,38.7,163.3,38z"/>
	<path class="st0" d="M172.1,51.4c-1.6-0.6-2.8-1.5-3.8-2.5l2-3.1c0.8,0.8,1.8,1.6,3.1,2.1c1.3,0.5,2.4,0.8,3.5,0.8
		c0.8,0,1.6-0.2,2.1-0.5c0.5-0.3,0.7-0.8,0.7-1.5c0-0.5-0.2-0.9-0.7-1.4c-0.5-0.3-1.4-0.7-2.4-1.2c-1.1-0.4-2-0.8-2.6-1.3
		c-0.7-0.4-1.3-0.9-1.8-1.6c-0.5-0.6-0.7-1.6-0.7-2.5c0-1.2,0.3-2.2,0.8-3.1c0.6-0.8,1.4-1.6,2.4-2c1.1-0.5,2.3-0.7,3.7-0.7
		s2.8,0.2,4.2,0.7c1.5,0.5,2.6,1.2,3.6,2l-2.2,3.1c-0.9-0.6-1.9-1.3-2.9-1.7c-1.1-0.4-2-0.6-2.7-0.6c-0.7,0-1.4,0.2-1.8,0.5
		c-0.5,0.3-0.7,0.7-0.7,1.3c0,0.5,0.2,0.9,0.7,1.3c0.5,0.3,1.3,0.7,2.4,1.2c1.2,0.4,2,0.9,2.7,1.3c0.7,0.4,1.4,0.9,1.8,1.6
		c0.5,0.7,0.7,1.6,0.7,2.6c0,1.2-0.3,2.2-0.9,3.1c-0.6,0.9-1.5,1.6-2.5,2.1c-1.2,0.5-2.3,0.7-3.8,0.7
		C175.3,52.4,173.7,52,172.1,51.4z"/>
</g>
<g>
	<path class="st0" d="M4.5,51.2c-1.3-0.7-2.3-1.7-3.1-3.1c-0.7-1.3-1.1-2.8-1.1-4.5c0-2,0.4-3.9,1.4-5.5c0.9-1.6,2.2-2.8,3.8-3.8
		c1.6-0.8,3.4-1.4,5.4-1.4c1.7,0,3.3,0.3,4.5,0.9s2.3,1.5,3.2,2.5l-3.1,2.7c-1.2-1.4-2.7-2.1-4.7-2.1c-1.1,0-2.1,0.3-2.9,0.8
		c-0.8,0.5-1.6,1.3-2.1,2.2S5,42.2,5,43.5c0,1.5,0.4,2.6,1.3,3.6c0.8,0.9,2,1.4,3.4,1.4c2.2,0,4-0.7,5.3-2.2l2.6,2.3
		c-0.9,1.3-2.2,2.2-3.6,2.8c-1.5,0.6-3.1,0.9-4.9,0.9C7.3,52.3,5.7,52,4.5,51.2z"/>
	<path class="st0" d="M40.4,33.2L27.6,54.7c-1.8,3.1-4.1,4.5-7.1,4.5c-0.9,0-1.8-0.1-2.4-0.4c-0.7-0.3-1.4-0.7-2-1.4l2.3-3.3
		c0.6,0.5,1.4,0.8,2.1,0.8c1.3,0,2.4-0.6,3.4-2l0.8-1.2l-4.1-18.5h4.7l2.5,13.9l7.8-13.9h4.6V33.2z"/>
	<path class="st0" d="M57,34.2c1.2,0.7,2.1,1.7,2.7,2.9s0.9,2.7,0.9,4.4c0,2-0.4,3.9-1.4,5.5c-0.8,1.7-2.1,2.9-3.7,3.9
		c-1.6,0.9-3.3,1.5-5.2,1.5c-1.6,0-2.9-0.3-4-1.1c-1.1-0.6-1.9-1.7-2.4-2.9l-0.7,3.7h-4.6L44,25.9h4.5l-2,10
		c0.8-0.8,1.8-1.6,2.9-2.1c1.1-0.5,2.3-0.7,3.5-0.7C54.5,33.1,55.7,33.5,57,34.2z M48.2,37.8c-0.9,0.6-1.7,1.4-2.2,2.4
		c-0.5,1.1-0.8,2.1-0.8,3.3c0,1.5,0.4,2.6,1.3,3.6c0.8,0.9,2,1.4,3.4,1.4c1.2,0,2.1-0.3,3.1-0.8c0.9-0.6,1.7-1.4,2.2-2.4
		c0.5-1.1,0.8-2.1,0.8-3.3c0-1.5-0.4-2.6-1.3-3.6c-0.8-0.8-2-1.4-3.4-1.4C50.2,36.9,49.1,37.1,48.2,37.8z"/>
	<path class="st0" d="M79.2,35.3c1.5,1.5,2.3,3.5,2.3,6c0,0.9-0.1,2-0.3,3.1H66.8c0.1,1.4,0.6,2.4,1.5,3.3c0.8,0.7,2.1,1.2,3.6,1.2
		c1.8,0,3.5-0.5,4.9-1.7l2.1,2.7c-2,1.7-4.4,2.5-7.3,2.5c-1.9,0-3.6-0.3-5.1-1.1c-1.5-0.7-2.5-1.7-3.4-3.1c-0.8-1.4-1.2-2.8-1.2-4.5
		c0-2,0.4-3.8,1.4-5.4c0.9-1.6,2.2-2.8,3.9-3.8s3.5-1.4,5.5-1.4C75.6,33.1,77.8,33.9,79.2,35.3z M76.3,38c-0.7-0.7-1.8-1.2-3.2-1.2
		c-1.4,0-2.6,0.4-3.7,1.3c-1.1,0.8-1.8,1.9-2.3,3.3h10.1C77.3,39.9,77,38.7,76.3,38z"/>
	<path class="st0" d="M93.5,34c1.2-0.6,2.5-0.9,3.9-0.9l-0.5,4.4h-0.6c-1.7,0-3.3,0.5-4.5,1.5c-1.3,1.1-2.1,2.3-2.5,3.9l-1.9,9.3
		h-4.6l3.8-18.8h4.6l-0.6,3.4C91.4,35.5,92.4,34.6,93.5,34z"/>
</g>
</svg>
