<?xml version="1.0" encoding="utf-8"?>
<!-- Generator: Adobe Illustrator 21.1.0, SVG Export Plug-In . SVG Version: 6.00 Build 0)  -->
<svg version="1.1" id="Layer_1" xmlns="http://www.w3.org/2000/svg" xmlns:xlink="http://www.w3.org/1999/xlink" x="0px" y="0px"
	 viewBox="0 0 265 58.3" style="enable-background:new 0 0 265 58.3;" xml:space="preserve">
<style type="text/css">
	.st0{fill:#00254D;}
	.st1{fill:#1D2830;}
	.st2{fill:#3DAA62;}
</style>
<g>
	<path class="st0" d="M261.2,6.7c-0.8,0.9-2,1.6-3.2,1.6c-2.1,0-3.6-1.7-3.3-3.8c0.1-0.6,0.3-1.1,0.5-1.6l-0.3,0.4l-10.6,19.8
		l-2.3-11c0,0.1,0,0.2,0,0.3c-0.3,2.1-2.1,3.8-4.2,3.8c-1.2,0-2.1-0.5-2.7-1.4l5.1,10.6l-8.5-1.6h-0.4c2,0,3.5,1.7,3.2,3.8
		c-0.2,1.9-1.8,3.5-3.7,3.7h0.1l8.9-1.4l-7.4,7.2c0.7-0.5,1.6-0.8,2.4-0.8c2.1,0,3.6,1.7,3.3,3.8c-0.1,0.5-0.2,0.9-0.4,1.3L243,32
		l3.5,15.1c-0.2-0.5-0.2-1-0.2-1.6c0.2-2.1,2.1-3.8,4.2-3.8c1,0,1.9,0.4,2.5,1.1l-6.2-12.5l11.2,1c-1.6-0.4-2.7-1.9-2.5-3.7
		c0.2-1.7,1.6-3.2,3.2-3.6l-10.9,1.6L261,7L261.2,6.7z"/>
	<polygon class="st1" points="246.9,47.8 247,47.8 246.9,47.7 	"/>
	<path class="st2" d="M234.4,27.6c-0.2,2.1-2.1,3.8-4.2,3.8c-2.1,0-3.6-1.7-3.3-3.8s2.1-3.8,4.2-3.8
		C233.2,23.8,234.7,25.5,234.4,27.6z"/>
	<path class="st2" d="M263.1,27.6c-0.3,2.1-2.1,3.8-4.2,3.8s-3.6-1.7-3.3-3.8c0.2-2.1,2.1-3.8,4.2-3.8
		C261.9,23.8,263.4,25.5,263.1,27.6z"/>
	<path class="st2" d="M241.9,12.4c-0.3,2.1-2.1,3.8-4.2,3.8c-2.1,0-3.6-1.7-3.3-3.8c0.2-2.1,2.1-3.8,4.2-3.8
		C240.7,8.6,242.2,10.3,241.9,12.4z"/>
	<path class="st2" d="M262.1,4.5c-0.2,2.1-2.1,3.8-4.2,3.8s-3.6-1.7-3.3-3.8c0.2-2.1,2.1-3.8,4.2-3.8C260.9,0.8,262.4,2.4,262.1,4.5
		z"/>
	<path class="st2" d="M238.1,40c-0.2,2.1-2.1,3.8-4.2,3.8c-2.1,0-3.6-1.7-3.3-3.8c0.2-2.1,2.1-3.8,4.2-3.8S238.4,37.9,238.1,40z"/>
	<path class="st2" d="M253.9,45.4c-0.2,2.1-2.1,3.8-4.2,3.8c-2.1,0-3.5-1.7-3.3-3.8s2.1-3.8,4.2-3.8
		C252.7,41.7,254.2,43.4,253.9,45.4z"/>
</g>
<g>
	<path class="st0" d="M102.8,31.3l-3.6,17.9h-4.3l3.6-17.9C98.5,31.3,102.8,31.3,102.8,31.3z M103.6,24.2c0.4,0.4,0.6,0.9,0.6,1.5
		c0,0.9-0.3,1.6-0.9,2.2s-1.3,0.9-2.1,0.9c-0.6,0-1.1-0.2-1.5-0.6s-0.6-0.9-0.6-1.5c0-0.8,0.3-1.6,0.9-2.2s1.3-0.9,2.1-0.9
		C102.7,23.6,103.2,23.8,103.6,24.2z"/>
	<path class="st0" d="M122,32.6c1.2,1,1.7,2.4,1.7,4.2c0,0.6-0.1,1.2-0.2,1.8l-2.1,10.6H117l2-9.9c0.1-0.4,0.1-0.7,0.1-1.1
		c0-1-0.3-1.8-0.9-2.4s-1.5-0.9-2.6-0.9c-1.3,0-2.4,0.4-3.4,1.3s-1.6,2-1.9,3.5l-1.9,9.5H104l3.5-17.9h4.4l-0.5,2.5
		c1.4-1.9,3.4-2.8,5.8-2.8C119.3,31,120.9,31.6,122,32.6z"/>
	<path class="st0" d="M127.8,48.5c-1.5-0.6-2.7-1.4-3.6-2.4l1.9-2.9c0.8,0.8,1.7,1.5,2.9,2s2.3,0.8,3.3,0.8c0.8,0,1.5-0.2,2-0.5
		s0.7-0.8,0.7-1.4c0-0.5-0.2-0.9-0.7-1.3c-0.5-0.3-1.3-0.7-2.3-1.1c-1-0.4-1.9-0.8-2.5-1.2c-0.7-0.4-1.2-0.9-1.7-1.5
		s-0.7-1.5-0.7-2.4c0-1.1,0.3-2.1,0.8-2.9c0.6-0.8,1.3-1.5,2.3-1.9c1-0.5,2.2-0.7,3.5-0.7s2.7,0.2,4,0.7c1.4,0.5,2.5,1.1,3.4,1.9
		l-2.1,2.9c-0.9-0.6-1.8-1.2-2.8-1.6c-1-0.4-1.9-0.6-2.6-0.6c-0.7,0-1.3,0.2-1.7,0.5c-0.5,0.3-0.7,0.7-0.7,1.2s0.2,0.9,0.7,1.2
		s1.2,0.7,2.3,1.1c1.1,0.4,1.9,0.9,2.6,1.2c0.7,0.4,1.3,0.9,1.7,1.5c0.5,0.7,0.7,1.5,0.7,2.5c0,1.1-0.3,2.1-0.9,2.9
		c-0.6,0.9-1.4,1.5-2.4,2c-1.1,0.5-2.2,0.7-3.6,0.7C130.9,49.4,129.4,49.1,127.8,48.5z"/>
	<path class="st0" d="M149.4,31.3l-3.6,17.9h-4.3l3.6-17.9C145.1,31.3,149.4,31.3,149.4,31.3z M150.2,24.2c0.4,0.4,0.6,0.9,0.6,1.5
		c0,0.9-0.3,1.6-0.9,2.2s-1.3,0.9-2.1,0.9c-0.6,0-1.1-0.2-1.5-0.6s-0.6-0.9-0.6-1.5c0-0.8,0.3-1.6,0.9-2.2s1.3-0.9,2.1-0.9
		C149.3,23.6,149.8,23.8,150.2,24.2z"/>
	<path class="st0" d="M149.4,53.4l1.9-3c1.5,1.2,3.4,1.8,5.4,1.8c1.7,0,3.1-0.3,4.1-1s1.7-1.7,2-3l0.6-2.2c-0.8,0.8-1.7,1.4-2.6,1.8
		c-1,0.4-2,0.6-3.1,0.6c-1.3,0-2.5-0.3-3.6-0.9c-1-0.6-1.8-1.5-2.4-2.6c-0.6-1.1-0.9-2.4-0.9-3.9c0-1.8,0.4-3.5,1.2-4.9
		c0.8-1.5,1.9-2.7,3.3-3.5c1.4-0.8,2.9-1.3,4.6-1.3c1.4,0,2.6,0.3,3.6,0.9c1,0.6,1.7,1.4,2.1,2.5l0.7-3.2h4.4l-3.6,17.3
		c-0.5,2.4-1.6,4.2-3.4,5.4c-1.8,1.3-4.1,1.9-6.9,1.9C154.2,55.9,151.7,55.1,149.4,53.4z M162,44c0.8-0.5,1.5-1.2,1.9-2
		s0.7-1.8,0.7-2.8c0-1.3-0.4-2.3-1.1-3.1c-0.7-0.8-1.7-1.2-3-1.2c-1,0-1.9,0.3-2.7,0.8s-1.5,1.2-1.9,2.1c-0.5,0.9-0.7,1.8-0.7,2.8
		c0,1.3,0.4,2.3,1.1,3s1.7,1.1,3,1.1C160.3,44.7,161.2,44.5,162,44z"/>
	<path class="st0" d="M189.8,32.6c1.2,1,1.7,2.4,1.7,4.2c0,0.6-0.1,1.2-0.2,1.8l-2.1,10.6h-4.4l2-9.9c0.1-0.4,0.1-0.7,0.1-1.1
		c0-1-0.3-1.8-0.9-2.4s-1.5-0.9-2.6-0.9c-1.3,0-2.4,0.4-3.4,1.3s-1.6,2-1.9,3.5l-1.9,9.5h-4.4l4.9-24.9h4.4l-1.8,9.5
		c1.4-1.9,3.4-2.8,5.8-2.8C187.1,31,188.7,31.6,189.8,32.6z"/>
	<path class="st0" d="M199.7,43.5c-0.1,0.4-0.1,0.7-0.1,0.9c0,0.4,0.1,0.8,0.3,0.9c0.2,0.2,0.5,0.3,1,0.3c0.7,0,1.6-0.3,2.8-0.8
		l0.6,3.5c-1.5,0.8-3,1.2-4.6,1.2c-1.4,0-2.5-0.4-3.3-1.1c-0.8-0.7-1.3-1.8-1.3-3.1c0-0.5,0-0.9,0.1-1.4l1.7-8.7h-2.5L195,32h2.5
		l1-4.9h4.4l-1,4.9h5.1l-0.6,3.2h-5.2L199.7,43.5z"/>
	<path class="st0" d="M209,48.5c-1.5-0.6-2.7-1.4-3.6-2.4l1.9-2.9c0.8,0.8,1.7,1.5,2.9,2s2.3,0.8,3.3,0.8c0.8,0,1.5-0.2,2-0.5
		s0.7-0.8,0.7-1.4c0-0.5-0.2-0.9-0.7-1.3c-0.5-0.3-1.3-0.7-2.3-1.1c-1-0.4-1.9-0.8-2.5-1.2c-0.7-0.4-1.2-0.9-1.7-1.5
		s-0.7-1.5-0.7-2.4c0-1.1,0.3-2.1,0.8-2.9c0.6-0.8,1.3-1.5,2.3-1.9c1-0.5,2.2-0.7,3.5-0.7s2.7,0.2,4,0.7c1.4,0.5,2.5,1.1,3.4,1.9
		l-2.1,2.9c-0.9-0.6-1.8-1.2-2.8-1.6c-1-0.4-1.9-0.6-2.6-0.6c-0.7,0-1.3,0.2-1.7,0.5c-0.5,0.3-0.7,0.7-0.7,1.2s0.2,0.9,0.7,1.2
		s1.2,0.7,2.3,1.1c1.1,0.4,1.9,0.9,2.6,1.2c0.7,0.4,1.3,0.9,1.7,1.5c0.5,0.7,0.7,1.5,0.7,2.5c0,1.1-0.3,2.1-0.9,2.9
		c-0.6,0.9-1.4,1.5-2.4,2c-1.1,0.5-2.2,0.7-3.6,0.7C212,49.4,210.5,49.1,209,48.5z"/>
</g>
<g>
	<path class="st2" d="M5,48.4c-1.2-0.7-2.2-1.6-2.9-2.9c-0.7-1.2-1-2.7-1-4.3c0-1.9,0.4-3.7,1.3-5.2s2.1-2.7,3.6-3.6
		c1.5-0.8,3.2-1.3,5.1-1.3c1.6,0,3.1,0.3,4.3,0.9s2.2,1.4,3,2.4l-2.9,2.5c-1.1-1.3-2.6-2-4.5-2c-1,0-2,0.3-2.8,0.8s-1.5,1.2-2,2.1
		c-0.5,0.9-0.7,1.9-0.7,3.1c0,1.4,0.4,2.5,1.2,3.4s1.9,1.3,3.2,1.3c2.1,0,3.8-0.7,5-2.1l2.5,2.2c-0.9,1.2-2.1,2.1-3.4,2.7
		s-2.9,0.9-4.7,0.9C7.7,49.4,6.3,49,5,48.4z"/>
	<path class="st2" d="M39.1,31.3L27,51.6c-1.7,2.9-3.9,4.3-6.7,4.3c-0.9,0-1.7-0.1-2.3-0.4c-0.7-0.3-1.3-0.7-1.9-1.3l2.2-3.1
		c0.6,0.5,1.3,0.8,2,0.8c1.2,0,2.3-0.6,3.2-1.9l0.8-1.1l-3.9-17.6h4.5l2.4,13.2l7.4-13.2C34.7,31.3,39.1,31.3,39.1,31.3z"/>
	<path class="st2" d="M54.9,32.1c1.1,0.7,2,1.6,2.6,2.8s0.9,2.6,0.9,4.2c0,1.9-0.4,3.7-1.3,5.2c-0.8,1.6-2,2.8-3.5,3.7
		s-3.1,1.4-4.9,1.4c-1.5,0-2.8-0.3-3.8-1c-1-0.6-1.8-1.6-2.3-2.8l-0.7,3.5h-4.4l5-24.9h4.3L45,33.8c0.8-0.8,1.7-1.5,2.8-2
		c1-0.5,2.2-0.7,3.3-0.7C52.5,31.1,53.8,31.5,54.9,32.1z M46.6,35.6c-0.9,0.6-1.6,1.3-2.1,2.3s-0.8,2-0.8,3.1c0,1.4,0.4,2.5,1.2,3.4
		s1.9,1.3,3.2,1.3c1.1,0,2-0.3,2.9-0.8c0.9-0.6,1.6-1.3,2.1-2.3s0.8-2,0.8-3.1c0-1.4-0.4-2.5-1.2-3.4c-0.8-0.8-1.9-1.3-3.2-1.3
		C48.5,34.7,47.5,35,46.6,35.6z"/>
	<path class="st2" d="M76,33.2c1.4,1.4,2.2,3.3,2.2,5.7c0,0.9-0.1,1.9-0.3,2.9H64.3c0.1,1.3,0.6,2.3,1.4,3.1c0.8,0.7,2,1.1,3.4,1.1
		c1.7,0,3.3-0.5,4.7-1.6l2,2.6c-1.9,1.6-4.2,2.4-6.9,2.4c-1.8,0-3.4-0.3-4.8-1s-2.4-1.6-3.2-2.9c-0.7-1.2-1.1-2.7-1.1-4.3
		c0-1.9,0.4-3.6,1.3-5.1c0.9-1.5,2.1-2.7,3.7-3.6c1.6-0.9,3.3-1.3,5.2-1.3C72.6,31.1,74.6,31.8,76,33.2z M73.2,35.7
		c-0.7-0.7-1.7-1.1-3-1.1s-2.5,0.4-3.5,1.2s-1.7,1.8-2.2,3.1h9.6C74.3,37.5,73.9,36.5,73.2,35.7z"/>
	<path class="st2" d="M89.7,32c1.1-0.6,2.4-0.9,3.7-0.9l-0.5,4.2h-0.6c-1.6,0-3.1,0.5-4.3,1.4c-1.2,1-2,2.2-2.4,3.7l-1.8,8.8h-4.4
		L83,31.3h4.4l-0.6,3.2C87.6,33.4,88.6,32.6,89.7,32z"/>
</g>
</svg>
