<?xml version="1.0" encoding="utf-8"?>
<!-- Generator: Adobe Illustrator 21.0.0, SVG Export Plug-In . SVG Version: 6.00 Build 0)  -->
<svg version="1.1" id="Capa_1" xmlns="http://www.w3.org/2000/svg" xmlns:xlink="http://www.w3.org/1999/xlink" x="0px" y="0px"
	 viewBox="0 0 96.8 107.3" style="enable-background:new 0 0 96.8 107.3;" xml:space="preserve">
<style type="text/css">
	.st0{fill:#10254B;}
	.st1{fill:#3DAA62;}
	.st2{fill:#FFFFFF;}
</style>
<g>
	<path class="st0" d="M13.5,16.8l0-0.9c-0.5,0-1,0.1-1.5,0.2c-0.5,0.2-0.9,0.4-1.3,0.8c-0.5,0.5-0.9,1-1.1,1.6
		c-0.2,0.6-0.3,1.3-0.2,1.9c0.1,0.7,0.4,1.2,0.8,1.7c0.5,0.5,1,0.9,1.6,1.1c0.6,0.2,1.3,0.2,1.9,0.1s1.3-0.4,1.8-0.9
		c0.4-0.3,0.7-0.7,0.9-1.2c0.2-0.5,0.4-0.9,0.5-1.4L16,19.8c0,0.4-0.2,0.8-0.3,1.2c-0.2,0.4-0.4,0.7-0.7,0.9
		c-0.4,0.3-0.8,0.6-1.3,0.7c-0.5,0.1-1,0.1-1.5-0.1c-0.5-0.2-0.9-0.4-1.2-0.8c-0.3-0.4-0.5-0.8-0.7-1.3c-0.1-0.5-0.1-1,0.1-1.5
		c0.2-0.5,0.4-0.9,0.8-1.2c0.3-0.3,0.6-0.4,1-0.6C12.7,16.8,13.1,16.8,13.5,16.8z"/>
	<polygon class="st0" points="18.4,20.2 21.9,17.8 21.3,17 18.7,18.8 14.9,13.3 14,13.9 	"/>
	<polygon class="st0" points="23,17.2 23.8,16.7 20.2,10.4 19.4,10.9 	"/>
	<path class="st0" d="M27.4,7.9l0.2-1c-0.5-0.2-1-0.3-1.5-0.3c-0.5,0-1,0.1-1.5,0.3c-0.6,0.3-1.2,0.7-1.5,1.3
		c-0.4,0.6-0.6,1.2-0.6,2c0,0.7,0.1,1.4,0.4,2.1c0.3,0.7,0.8,1.3,1.3,1.7c0.6,0.5,1.2,0.7,1.9,0.8s1.3,0,2-0.3
		c0.5-0.2,0.9-0.5,1.2-0.9c0.4-0.4,0.6-0.8,0.8-1.3L29.3,12c-0.1,0.4-0.3,0.8-0.6,1.1c-0.3,0.3-0.6,0.6-0.9,0.7
		c-0.5,0.2-1,0.3-1.5,0.2c-0.5-0.1-1-0.3-1.4-0.7s-0.8-0.8-1-1.4c-0.2-0.5-0.4-1.1-0.3-1.7c0-0.6,0.2-1.1,0.5-1.5
		c0.3-0.4,0.7-0.8,1.1-1c0.3-0.2,0.7-0.2,1.2-0.2C26.6,7.6,27,7.7,27.4,7.9z"/>
	<polygon class="st0" points="33.1,8 34.9,3.8 33.7,4.2 31.4,9.6 30.1,5.3 29.2,5.5 31.5,13.2 32.4,12.9 31.8,10.9 32.7,9 
		36.2,11.8 37.4,11.5 	"/>
	<polygon class="st0" points="39.7,4.1 42,3.8 42.7,10.7 43.8,10.6 43.1,3.7 45.4,3.5 45.3,2.7 39.6,3.3 	"/>
	<path class="st0" d="M50.9,3.6c0.5,0,1,0.2,1.4,0.5c0.4,0.3,0.8,0.7,1,1.1s0.3,1,0.3,1.5c0,0.5-0.2,1.1-0.4,1.5
		c-0.3,0.5-0.6,0.8-1.1,1.1c-0.4,0.3-0.9,0.4-1.4,0.3c-0.5,0-1-0.2-1.4-0.5c-0.4-0.3-0.8-0.7-1-1.1c-0.2-0.5-0.4-1-0.3-1.5
		c0-0.6,0.2-1,0.4-1.5c0.3-0.4,0.6-0.8,1.1-1.1C49.9,3.7,50.4,3.6,50.9,3.6z M50.9,2.7c-0.7,0-1.4,0.1-2,0.4
		c-0.6,0.3-1.1,0.8-1.5,1.3s-0.6,1.2-0.6,1.9c0,0.7,0.1,1.4,0.4,2c0.3,0.6,0.8,1.1,1.3,1.5c0.6,0.4,1.2,0.6,1.9,0.6
		c0.7,0,1.4-0.1,2-0.4c0.6-0.3,1.1-0.8,1.5-1.3c0.4-0.6,0.6-1.2,0.6-1.9c0-0.7-0.1-1.3-0.4-2c-0.3-0.6-0.8-1.1-1.3-1.4
		C52.2,3,51.6,2.8,50.9,2.7z"/>
	<polygon class="st0" points="60.1,11.7 61.1,12 65.9,5 64.9,4.7 60.9,10.7 60.2,3.6 59.1,3.3 	"/>
	<path class="st0" d="M70.5,7.3c0.5,0.2,0.9,0.5,1.1,0.9c0.3,0.4,0.4,0.9,0.5,1.5c0.1,0.6,0,1.1-0.3,1.7c-0.2,0.6-0.6,1-1,1.4
		c-0.4,0.3-0.9,0.6-1.4,0.7c-0.5,0.1-1,0.1-1.5-0.1c-0.5-0.2-0.9-0.5-1.2-0.9s-0.5-0.9-0.5-1.5c-0.1-0.6,0-1.1,0.3-1.7
		c0.2-0.6,0.6-1,1-1.4c0.4-0.3,0.9-0.6,1.4-0.7C69.6,7,70.1,7.1,70.5,7.3z M70.9,6.4c-0.7-0.3-1.4-0.3-2-0.2
		c-0.7,0.1-1.3,0.4-1.9,0.9c-0.6,0.5-1,1.1-1.3,1.8c-0.3,0.7-0.4,1.4-0.3,2.1c0.1,0.7,0.3,1.4,0.7,1.9c0.4,0.6,0.9,1,1.6,1.3
		c0.7,0.3,1.3,0.3,2,0.2c0.7-0.1,1.3-0.4,1.9-0.9c0.6-0.5,1-1.1,1.3-1.7c0.3-0.7,0.4-1.4,0.3-2.1c-0.1-0.7-0.3-1.3-0.7-1.9
		C72.1,7.1,71.5,6.7,70.9,6.4z"/>
	<polygon class="st0" points="72.2,16.2 73.1,16.7 76.5,10.4 75.6,9.9 	"/>
	<path class="st0" d="M82.2,15.7l0.9-0.3c-0.1-0.5-0.3-0.9-0.6-1.4c-0.3-0.4-0.6-0.8-1.1-1.1c-0.6-0.4-1.2-0.6-1.9-0.7
		c-0.7,0-1.3,0.1-1.9,0.4c-0.6,0.3-1.1,0.7-1.5,1.3c-0.4,0.6-0.6,1.2-0.7,1.9c-0.1,0.7,0.1,1.3,0.4,1.9c0.3,0.6,0.7,1.1,1.3,1.5
		c0.4,0.3,0.9,0.5,1.4,0.6c0.5,0.1,1,0.1,1.5,0.1L80,18.9c-0.4,0.1-0.8,0.1-1.2,0c-0.4-0.1-0.8-0.2-1.1-0.4c-0.4-0.3-0.8-0.7-1-1.1
		c-0.2-0.5-0.3-0.9-0.3-1.4c0-0.5,0.2-1,0.5-1.4c0.3-0.4,0.7-0.8,1.1-1c0.5-0.2,0.9-0.3,1.4-0.3c0.5,0,1,0.2,1.4,0.5
		c0.3,0.2,0.6,0.5,0.8,0.8C82,14.9,82.1,15.3,82.2,15.7z"/>
	<polygon class="st0" points="80.1,21.3 84.1,24.8 84.6,24.1 81.4,21.4 82.8,19.9 85.5,22.3 86.1,21.6 83.3,19.2 85.3,17 88.3,19.7 
		88.9,19.1 85.1,15.7 	"/>
</g>
<path class="st0" d="M5.4,59.4c0-23.8,19.3-43,43.1-43s43.1,19.3,43.1,43c0,23.8-19.3,43-43.1,43S5.4,83.1,5.4,59.4z"/>
<path class="st0" d="M1.5,59.4c0,25.7,21,46.5,47,46.5s47-20.8,47-46.5c0-25.7-21-46.5-47-46.5S1.5,33.7,1.5,59.4z M2.9,59.4
	c0-24.9,20.4-45.2,45.6-45.2s45.6,20.2,45.6,45.2c0,24.9-20.4,45.1-45.6,45.1S2.9,84.3,2.9,59.4z"/>
<path class="st1" d="M64.3,60.3c-0.6,0-1,0.5-1,1.1v6.3c0,8.1-6.6,14.8-14.7,14.8s-14.7-6.6-14.7-14.8v-6.3c0-0.6-0.5-1.1-1-1.1
	c-0.6,0-1.1,0.5-1.1,1.1v6.3c0,8.9,7,16.3,15.8,16.8v5.3h-5.3c-0.6,0-1.1,0.5-1.1,1.1c0,0.6,0.5,1.1,1.1,1.1h12.6c0.6,0,1-0.5,1-1.1
	c0-0.6-0.5-1.1-1-1.1h-5.3v-5.3c8.8-0.6,15.8-7.9,15.8-16.8v-6.3C65.3,60.7,64.9,60.3,64.3,60.3z"/>
<path class="st2" d="M38,69.8c0-0.6,0.5-1.1,1.1-1.1s1.1,0.5,1.1,1.1s-0.5,1.1-1.1,1.1C38.4,70.8,38,70.3,38,69.8z M39,62.4
	c0.6,0,1.1,0.5,1.1,1.1s-0.5,1.1-1.1,1.1S38,64,38,63.4S38.4,62.4,39,62.4z M39,56c0.6,0,1.1,0.5,1.1,1.1s-0.5,1.1-1.1,1.1
	S38,57.7,38,57.1S38.4,56,39,56z M39,49.7c0.6,0,1.1,0.5,1.1,1.1s-0.5,1.1-1.1,1.1S38,51.3,38,50.8S38.4,49.7,39,49.7z M39,43.4
	c0.6,0,1.1,0.5,1.1,1.1s-0.5,1.1-1.1,1.1S38,45,38,44.4S38.4,43.4,39,43.4z M39,37.1c0.6,0,1.1,0.5,1.1,1.1s-0.5,1.1-1.1,1.1
	S38,38.7,38,38.1S38.4,37.1,39,37.1z M42.2,71.9c0.6,0,1.1,0.5,1.1,1.1c0,0.6-0.5,1.1-1.1,1.1s-1.1-0.5-1.1-1.1
	C41.1,72.3,41.6,71.9,42.2,71.9z M42.2,65.5c0.6,0,1.1,0.5,1.1,1.1c0,0.6-0.5,1.1-1.1,1.1s-1.1-0.5-1.1-1.1
	C41.1,66,41.6,65.5,42.2,65.5z M42.2,59.2c0.6,0,1.1,0.5,1.1,1.1c0,0.6-0.5,1.1-1.1,1.1s-1.1-0.5-1.1-1.1
	C41.1,59.7,41.6,59.2,42.2,59.2z M42.2,52.9c0.6,0,1.1,0.5,1.1,1.1c0,0.6-0.5,1.1-1.1,1.1s-1.1-0.5-1.1-1.1
	C41.1,53.3,41.6,52.9,42.2,52.9z M42.2,46.5c0.6,0,1.1,0.5,1.1,1.1s-0.5,1.1-1.1,1.1s-1.1-0.5-1.1-1.1S41.6,46.5,42.2,46.5z
	 M42.2,40.2c0.6,0,1.1,0.5,1.1,1.1c0,0.6-0.5,1.1-1.1,1.1s-1.1-0.5-1.1-1.1C41.1,40.7,41.6,40.2,42.2,40.2z M42.2,33.9
	c0.6,0,1.1,0.5,1.1,1.1c0,0.6-0.5,1.1-1.1,1.1s-1.1-0.5-1.1-1.1C41.1,34.4,41.6,33.9,42.2,33.9z M45.3,75c0.6,0,1.1,0.5,1.1,1.1
	s-0.5,1.1-1.1,1.1s-1.1-0.5-1.1-1.1S44.8,75,45.3,75z M45.3,68.7c0.6,0,1.1,0.5,1.1,1.1s-0.5,1.1-1.1,1.1s-1.1-0.5-1.1-1.1
	S44.8,68.7,45.3,68.7z M45.3,62.4c0.6,0,1.1,0.5,1.1,1.1s-0.5,1.1-1.1,1.1s-1.1-0.5-1.1-1.1S44.8,62.4,45.3,62.4z M45.3,56
	c0.6,0,1.1,0.5,1.1,1.1s-0.5,1.1-1.1,1.1s-1.1-0.5-1.1-1.1S44.8,56,45.3,56z M45.3,49.7c0.6,0,1.1,0.5,1.1,1.1s-0.5,1.1-1.1,1.1
	s-1.1-0.5-1.1-1.1S44.8,49.7,45.3,49.7z M45.3,43.4c0.6,0,1.1,0.5,1.1,1.1s-0.5,1.1-1.1,1.1s-1.1-0.5-1.1-1.1S44.8,43.4,45.3,43.4z
	 M45.3,37.1c0.6,0,1.1,0.5,1.1,1.1s-0.5,1.1-1.1,1.1s-1.1-0.5-1.1-1.1S44.8,37.1,45.3,37.1z M45.3,30.7c0.6,0,1.1,0.5,1.1,1.1
	c0,0.6-0.5,1.1-1.1,1.1s-1.1-0.5-1.1-1.1C44.3,31.2,44.8,30.7,45.3,30.7z M48.5,71.9c0.6,0,1.1,0.5,1.1,1.1c0,0.6-0.5,1.1-1.1,1.1
	s-1.1-0.5-1.1-1.1C47.4,72.3,47.9,71.9,48.5,71.9z M48.5,65.5c0.6,0,1.1,0.5,1.1,1.1c0,0.6-0.5,1.1-1.1,1.1s-1.1-0.5-1.1-1.1
	C47.4,66,47.9,65.5,48.5,65.5z M48.5,59.2c0.6,0,1.1,0.5,1.1,1.1c0,0.6-0.5,1.1-1.1,1.1s-1.1-0.5-1.1-1.1
	C47.4,59.7,47.9,59.2,48.5,59.2z M48.5,52.9c0.6,0,1.1,0.5,1.1,1.1c0,0.6-0.5,1.1-1.1,1.1s-1.1-0.5-1.1-1.1
	C47.4,53.3,47.9,52.9,48.5,52.9z M48.5,46.5c0.6,0,1.1,0.5,1.1,1.1s-0.5,1.1-1.1,1.1s-1.1-0.5-1.1-1.1S47.9,46.5,48.5,46.5z
	 M48.5,40.2c0.6,0,1.1,0.5,1.1,1.1c0,0.6-0.5,1.1-1.1,1.1s-1.1-0.5-1.1-1.1C47.4,40.7,47.9,40.2,48.5,40.2z M48.5,33.9
	c0.6,0,1.1,0.5,1.1,1.1c0,0.6-0.5,1.1-1.1,1.1s-1.1-0.5-1.1-1.1C47.4,34.4,47.9,33.9,48.5,33.9z M51.7,75c0.6,0,1.1,0.5,1.1,1.1
	s-0.5,1.1-1.1,1.1c-0.6,0-1.1-0.5-1.1-1.1S51.1,75,51.7,75z M51.7,68.7c0.6,0,1.1,0.5,1.1,1.1s-0.5,1.1-1.1,1.1
	c-0.6,0-1.1-0.5-1.1-1.1S51.1,68.7,51.7,68.7z M51.7,62.4c0.6,0,1.1,0.5,1.1,1.1s-0.5,1.1-1.1,1.1c-0.6,0-1.1-0.5-1.1-1.1
	S51.1,62.4,51.7,62.4z M51.7,56c0.6,0,1.1,0.5,1.1,1.1s-0.5,1.1-1.1,1.1c-0.6,0-1.1-0.5-1.1-1.1S51.1,56,51.7,56z M51.7,49.7
	c0.6,0,1.1,0.5,1.1,1.1s-0.5,1.1-1.1,1.1c-0.6,0-1.1-0.5-1.1-1.1S51.1,49.7,51.7,49.7z M51.7,43.4c0.6,0,1.1,0.5,1.1,1.1
	s-0.5,1.1-1.1,1.1c-0.6,0-1.1-0.5-1.1-1.1S51.1,43.4,51.7,43.4z M51.7,37.1c0.6,0,1.1,0.5,1.1,1.1s-0.5,1.1-1.1,1.1
	c-0.6,0-1.1-0.5-1.1-1.1S51.1,37.1,51.7,37.1z M51.7,30.7c0.6,0,1.1,0.5,1.1,1.1c0,0.6-0.5,1.1-1.1,1.1c-0.6,0-1.1-0.5-1.1-1.1
	C50.6,31.2,51.1,30.7,51.7,30.7z M54.8,71.9c0.6,0,1,0.5,1,1.1c0,0.6-0.5,1.1-1,1.1s-1.1-0.5-1.1-1.1C53.8,72.3,54.2,71.9,54.8,71.9
	z M54.8,65.5c0.6,0,1,0.5,1,1.1c0,0.6-0.5,1.1-1,1.1s-1.1-0.5-1.1-1.1C53.8,66,54.2,65.5,54.8,65.5z M54.8,59.2c0.6,0,1,0.5,1,1.1
	c0,0.6-0.5,1.1-1,1.1s-1.1-0.5-1.1-1.1C53.8,59.7,54.2,59.2,54.8,59.2z M54.8,52.9c0.6,0,1,0.5,1,1.1c0,0.6-0.5,1.1-1,1.1
	s-1.1-0.5-1.1-1.1C53.8,53.3,54.2,52.9,54.8,52.9z M54.8,46.5c0.6,0,1,0.5,1,1.1s-0.5,1.1-1,1.1s-1.1-0.5-1.1-1.1
	S54.2,46.5,54.8,46.5z M54.8,40.2c0.6,0,1,0.5,1,1.1c0,0.6-0.5,1.1-1,1.1s-1.1-0.5-1.1-1.1C53.8,40.7,54.2,40.2,54.8,40.2z
	 M54.8,33.9c0.6,0,1,0.5,1,1.1c0,0.6-0.5,1.1-1,1.1s-1.1-0.5-1.1-1.1C53.8,34.4,54.2,33.9,54.8,33.9z M58,68.7c0.6,0,1,0.5,1,1.1
	s-0.5,1.1-1,1.1c-0.6,0-1.1-0.5-1.1-1.1S57.4,68.7,58,68.7z M58,62.4c0.6,0,1,0.5,1,1.1s-0.5,1.1-1,1.1c-0.6,0-1.1-0.5-1.1-1.1
	S57.4,62.4,58,62.4z M58,56c0.6,0,1,0.5,1,1.1s-0.5,1.1-1,1.1c-0.6,0-1.1-0.5-1.1-1.1S57.4,56,58,56z M58,49.7c0.6,0,1,0.5,1,1.1
	s-0.5,1.1-1,1.1c-0.6,0-1.1-0.5-1.1-1.1S57.4,49.7,58,49.7z M58,43.4c0.6,0,1,0.5,1,1.1s-0.5,1.1-1,1.1c-0.6,0-1.1-0.5-1.1-1.1
	S57.4,43.4,58,43.4z M58,37.1c0.6,0,1,0.5,1,1.1s-0.5,1.1-1,1.1c-0.6,0-1.1-0.5-1.1-1.1S57.4,37.1,58,37.1z M48.5,80.3
	c-0.6,0-1.1-0.5-1.1-1.1c0-0.6,0.5-1.1,1.1-1.1s1.1,0.5,1.1,1.1C49.6,79.8,49.1,80.3,48.5,80.3c7,0,12.6-5.7,12.6-12.7V42.3
	c0-7-5.7-12.7-12.6-12.7s-12.6,5.7-12.6,12.7v25.3C35.9,74.6,41.5,80.3,48.5,80.3z"/>
</svg>
