<?xml version="1.0" encoding="utf-8"?>
<!-- Generator: Adobe Illustrator 21.1.0, SVG Export Plug-In . SVG Version: 6.00 Build 0)  -->
<svg version="1.1" id="Layer_1" xmlns="http://www.w3.org/2000/svg" xmlns:xlink="http://www.w3.org/1999/xlink" x="0px" y="0px"
	 viewBox="0 0 218.5 58.3" style="enable-background:new 0 0 218.5 58.3;" xml:space="preserve">
<style type="text/css">
	.st0{fill:#00254D;}
	.st1{fill:#1D2830;}
	.st2{fill:#3DAA62;}
</style>
<g>
	<path class="st0" d="M214.4,7.2c-0.8,0.9-2,1.6-3.2,1.6c-2.1,0-3.6-1.7-3.3-3.8c0.1-0.6,0.3-1.1,0.5-1.6l-0.3,0.4l-10.6,19.8
		l-2.3-11c0,0.1,0,0.2,0,0.3c-0.3,2.1-2.1,3.8-4.2,3.8c-1.2,0-2.1-0.5-2.7-1.4l5.1,10.6l-8.5-1.6h-0.4c2,0,3.5,1.7,3.2,3.8
		c-0.2,1.9-1.8,3.5-3.7,3.7h0.1l8.9-1.4l-7.4,7.2c0.7-0.5,1.6-0.8,2.4-0.8c2.1,0,3.6,1.7,3.3,3.8c-0.1,0.5-0.2,0.9-0.4,1.3l5.3-9.4
		l3.5,15.1c-0.2-0.5-0.2-1-0.2-1.6c0.2-2.1,2.1-3.8,4.2-3.8c1,0,1.9,0.4,2.5,1.1l-6.2-12.5l11.2,1c-1.6-0.4-2.7-1.9-2.5-3.7
		c0.2-1.7,1.6-3.2,3.2-3.6L201.1,26l13.2-18.6L214.4,7.2z"/>
	<polygon class="st1" points="200.1,48.3 200.2,48.3 200.1,48.2 	"/>
	<path class="st2" d="M187.6,28.1c-0.2,2.1-2.1,3.8-4.2,3.8c-2.1,0-3.6-1.7-3.3-3.8c0.3-2.1,2.1-3.8,4.2-3.8
		C186.4,24.3,187.9,26,187.6,28.1z"/>
	<path class="st2" d="M216.4,28.1c-0.2,2.1-2.1,3.8-4.2,3.8c-2.1,0-3.6-1.7-3.3-3.8c0.3-2.1,2.1-3.8,4.2-3.8
		C215.1,24.3,216.6,26,216.4,28.1z"/>
	<path class="st2" d="M195.1,12.9c-0.3,2.1-2.1,3.8-4.2,3.8c-2.1,0-3.6-1.7-3.3-3.8c0.2-2.1,2.1-3.8,4.2-3.8
		C193.9,9.1,195.4,10.8,195.1,12.9z"/>
	<path class="st2" d="M215.4,5c-0.2,2.1-2.1,3.8-4.2,3.8c-2.1,0-3.6-1.7-3.3-3.8c0.2-2.1,2.1-3.8,4.2-3.8
		C214.1,1.3,215.6,2.9,215.4,5z"/>
	<path class="st2" d="M191.3,40.5c-0.3,2.1-2.1,3.8-4.2,3.8c-2.1,0-3.6-1.7-3.3-3.8c0.2-2.1,2.1-3.8,4.2-3.8
		C190.1,36.7,191.6,38.4,191.3,40.5z"/>
	<path class="st2" d="M207.1,46c-0.2,2.1-2.1,3.8-4.2,3.8c-2.1,0-3.5-1.7-3.3-3.8c0.2-2.1,2.1-3.8,4.2-3.8
		C205.9,42.2,207.4,43.9,207.1,46z"/>
</g>
<g>
	<path class="st0" d="M97,49c-1.5-0.6-2.7-1.4-3.6-2.4l1.9-2.9c0.8,0.8,1.7,1.5,2.9,2s2.3,0.8,3.3,0.8c0.8,0,1.5-0.2,2-0.5
		c0.5-0.3,0.7-0.8,0.7-1.4c0-0.5-0.2-0.9-0.7-1.3c-0.5-0.3-1.3-0.7-2.3-1.1c-1-0.4-1.9-0.8-2.5-1.2c-0.7-0.4-1.2-0.9-1.7-1.5
		c-0.5-0.6-0.7-1.5-0.7-2.4c0-1.1,0.3-2.1,0.8-2.9c0.6-0.8,1.3-1.5,2.3-1.9c1-0.5,2.2-0.7,3.5-0.7c1.3,0,2.7,0.2,4,0.7
		c1.4,0.5,2.5,1.1,3.4,1.9l-2.1,2.9c-0.9-0.6-1.8-1.2-2.8-1.6c-1-0.4-1.9-0.6-2.6-0.6c-0.7,0-1.3,0.2-1.7,0.5
		c-0.5,0.3-0.7,0.7-0.7,1.2c0,0.5,0.2,0.9,0.7,1.2c0.5,0.3,1.2,0.7,2.3,1.1c1.1,0.4,1.9,0.9,2.6,1.2s1.3,0.9,1.7,1.5
		c0.5,0.7,0.7,1.5,0.7,2.5c0,1.1-0.3,2.1-0.9,2.9c-0.6,0.8-1.4,1.5-2.4,2c-1.1,0.5-2.2,0.7-3.6,0.7C100.1,49.9,98.5,49.6,97,49z"/>
	<path class="st0" d="M114.3,48.9c-1.1-0.7-2-1.6-2.6-2.8c-0.6-1.2-0.9-2.6-0.9-4.2c0-1.9,0.4-3.7,1.3-5.2c0.8-1.6,2-2.8,3.5-3.7
		c1.5-0.9,3.1-1.4,4.9-1.4c1.5,0,2.8,0.3,3.8,1c1,0.6,1.8,1.6,2.3,2.8l0.7-3.6h4.4l-3.6,17.9h-4.3l0.5-2.4c-0.8,0.8-1.7,1.5-2.8,2
		c-1.1,0.5-2.2,0.7-3.4,0.7C116.7,49.9,115.4,49.6,114.3,48.9z M122.7,45.5c0.9-0.6,1.6-1.3,2.1-2.3c0.5-1,0.8-2,0.8-3.1
		c0-1.4-0.4-2.5-1.2-3.4s-1.9-1.3-3.2-1.3c-1.1,0-2.1,0.3-3,0.8c-0.9,0.6-1.6,1.3-2.1,2.3c-0.5,1-0.8,2-0.8,3.1
		c0,1.4,0.4,2.5,1.2,3.4s1.9,1.3,3.2,1.3C120.8,46.3,121.8,46.1,122.7,45.5z"/>
	<path class="st0" d="M142.4,24.8l-5,24.9H133l5-24.9H142.4z"/>
	<path class="st0" d="M158.6,33.7c1.4,1.4,2.2,3.3,2.2,5.7c0,0.9-0.1,1.9-0.3,2.9h-13.6c0.1,1.3,0.6,2.3,1.4,3.1
		c0.8,0.7,2,1.1,3.4,1.1c1.7,0,3.3-0.5,4.7-1.6l2,2.6c-1.9,1.6-4.2,2.4-6.9,2.4c-1.8,0-3.4-0.3-4.8-1c-1.4-0.7-2.4-1.6-3.2-2.9
		c-0.7-1.2-1.1-2.7-1.1-4.3c0-1.9,0.4-3.6,1.3-5.1c0.9-1.5,2.1-2.7,3.7-3.6c1.6-0.9,3.3-1.3,5.2-1.3
		C155.2,31.6,157.2,32.3,158.6,33.7z M155.8,36.2c-0.7-0.7-1.7-1.1-3-1.1c-1.3,0-2.5,0.4-3.5,1.2c-1,0.8-1.7,1.8-2.2,3.1h9.6
		C156.8,38,156.5,37,155.8,36.2z"/>
	<path class="st0" d="M164.2,49c-1.5-0.6-2.7-1.4-3.6-2.4l1.9-2.9c0.8,0.8,1.7,1.5,2.9,2c1.2,0.5,2.3,0.8,3.3,0.8
		c0.8,0,1.5-0.2,2-0.5c0.5-0.3,0.7-0.8,0.7-1.4c0-0.5-0.2-0.9-0.7-1.3c-0.5-0.3-1.3-0.7-2.3-1.1c-1-0.4-1.9-0.8-2.5-1.2
		s-1.2-0.9-1.7-1.5s-0.7-1.5-0.7-2.4c0-1.1,0.3-2.1,0.8-2.9s1.3-1.5,2.3-1.9c1-0.5,2.2-0.7,3.5-0.7c1.3,0,2.7,0.2,4,0.7
		c1.4,0.5,2.5,1.1,3.4,1.9l-2.1,2.9c-0.9-0.6-1.8-1.2-2.8-1.6c-1-0.4-1.9-0.6-2.6-0.6c-0.7,0-1.3,0.2-1.7,0.5
		c-0.5,0.3-0.7,0.7-0.7,1.2c0,0.5,0.2,0.9,0.7,1.2s1.2,0.7,2.3,1.1c1.1,0.4,1.9,0.9,2.6,1.2s1.3,0.9,1.7,1.5
		c0.5,0.7,0.7,1.5,0.7,2.5c0,1.1-0.3,2.1-0.9,2.9c-0.6,0.8-1.4,1.5-2.4,2c-1.1,0.5-2.2,0.7-3.6,0.7C167.3,49.9,165.7,49.6,164.2,49z
		"/>
</g>
<g>
	<path class="st2" d="M5,48.9c-1.2-0.7-2.2-1.6-2.9-2.9c-0.7-1.2-1-2.7-1-4.3c0-1.9,0.4-3.7,1.3-5.2C3.3,35,4.5,33.8,6,32.9
		c1.5-0.8,3.2-1.3,5.1-1.3c1.6,0,3.1,0.3,4.3,0.9s2.2,1.4,3,2.4l-2.9,2.5c-1.1-1.3-2.6-2-4.5-2c-1,0-2,0.3-2.8,0.8s-1.5,1.2-2,2.1
		c-0.5,0.9-0.7,1.9-0.7,3.1c0,1.4,0.4,2.5,1.2,3.4c0.8,0.9,1.9,1.3,3.2,1.3c2.1,0,3.8-0.7,5-2.1l2.5,2.2c-0.9,1.2-2.1,2.1-3.4,2.7
		c-1.4,0.6-2.9,0.9-4.7,0.9C7.7,49.9,6.3,49.5,5,48.9z"/>
	<path class="st2" d="M39.1,31.8L27,52.1c-1.7,2.9-3.9,4.3-6.7,4.3c-0.9,0-1.7-0.1-2.3-0.4c-0.7-0.3-1.3-0.7-1.9-1.3l2.2-3.1
		c0.6,0.5,1.3,0.8,2,0.8c1.2,0,2.3-0.6,3.2-1.9l0.8-1.1l-3.9-17.6h4.5L27.3,45l7.4-13.2H39.1z"/>
	<path class="st2" d="M54.9,32.6c1.1,0.7,2,1.6,2.6,2.8c0.6,1.2,0.9,2.6,0.9,4.2c0,1.9-0.4,3.7-1.3,5.2c-0.8,1.6-2,2.8-3.5,3.7
		c-1.5,0.9-3.1,1.4-4.9,1.4c-1.5,0-2.8-0.3-3.8-1c-1-0.6-1.8-1.6-2.3-2.8l-0.7,3.5h-4.4l5-24.9h4.3L45,34.3c0.8-0.8,1.7-1.5,2.8-2
		c1-0.5,2.2-0.7,3.3-0.7C52.5,31.6,53.8,32,54.9,32.6z M46.6,36.1c-0.9,0.6-1.6,1.3-2.1,2.3c-0.5,1-0.8,2-0.8,3.1
		c0,1.4,0.4,2.5,1.2,3.4s1.9,1.3,3.2,1.3c1.1,0,2-0.3,2.9-0.8s1.6-1.3,2.1-2.3c0.5-1,0.8-2,0.8-3.1c0-1.4-0.4-2.5-1.2-3.4
		s-1.9-1.3-3.2-1.3C48.5,35.2,47.5,35.5,46.6,36.1z"/>
	<path class="st2" d="M76,33.7c1.4,1.4,2.2,3.3,2.2,5.7c0,0.9-0.1,1.9-0.3,2.9H64.3c0.1,1.3,0.6,2.3,1.4,3.1c0.8,0.7,2,1.1,3.4,1.1
		c1.7,0,3.3-0.5,4.7-1.6l2,2.6c-1.9,1.6-4.2,2.4-6.9,2.4c-1.8,0-3.4-0.3-4.8-1c-1.4-0.7-2.4-1.6-3.2-2.9c-0.7-1.2-1.1-2.7-1.1-4.3
		c0-1.9,0.4-3.6,1.3-5.1c0.9-1.5,2.1-2.7,3.7-3.6c1.6-0.9,3.3-1.3,5.2-1.3C72.6,31.6,74.6,32.3,76,33.7z M73.2,36.2
		c-0.7-0.7-1.7-1.1-3-1.1c-1.3,0-2.5,0.4-3.5,1.2c-1,0.8-1.7,1.8-2.2,3.1h9.6C74.3,38,73.9,37,73.2,36.2z"/>
	<path class="st2" d="M89.7,32.5c1.1-0.6,2.4-0.9,3.7-0.9l-0.5,4.2l-0.6,0c-1.6,0-3.1,0.5-4.3,1.4c-1.2,1-2,2.2-2.4,3.7l-1.8,8.8
		h-4.4L83,31.8h4.4L86.8,35C87.6,33.9,88.6,33.1,89.7,32.5z"/>
</g>
</svg>
